<?xml version="1.0" encoding="UTF-8" standalone="no"?>
<!-- Created with Inkscape (http://www.inkscape.org/) -->

<svg
   xmlns:dc="http://purl.org/dc/elements/1.1/"
   xmlns:cc="http://creativecommons.org/ns#"
   xmlns:rdf="http://www.w3.org/1999/02/22-rdf-syntax-ns#"
   xmlns:svg="http://www.w3.org/2000/svg"
   xmlns="http://www.w3.org/2000/svg"
   xmlns:sodipodi="http://sodipodi.sourceforge.net/DTD/sodipodi-0.dtd"
   xmlns:inkscape="http://www.inkscape.org/namespaces/inkscape"
   width="500"
   height="500"
   id="svg2"
   version="1.1"
   inkscape:version="0.91 r13725"
   sodipodi:docname="logo.svg"
   inkscape:export-filename="/home/lettier/Pictures/v4.png"
   inkscape:export-xdpi="300"
   inkscape:export-ydpi="300">
  <sodipodi:namedview
     id="base"
     pagecolor="#ffffff"
     bordercolor="#666666"
     borderopacity="0.43137255"
     inkscape:pageopacity="0.0"
     inkscape:pageshadow="2"
     inkscape:zoom="1.0561341"
     inkscape:cx="84.328835"
     inkscape:cy="358.87788"
     inkscape:document-units="px"
     inkscape:current-layer="layer1"
     showgrid="false"
     inkscape:snap-global="false"
     showguides="true"
     inkscape:guide-bbox="true"
     inkscape:snap-grids="false"
     inkscape:snap-to-guides="false"
     inkscape:window-width="1920"
     inkscape:window-height="1152"
     inkscape:window-x="0"
     inkscape:window-y="347"
     inkscape:window-maximized="1" />
  <defs
     id="defs4" />
  <metadata
     id="metadata7">
    <rdf:RDF>
      <cc:Work
         rdf:about="">
        <dc:format>image/svg+xml</dc:format>
        <dc:type
           rdf:resource="http://purl.org/dc/dcmitype/StillImage" />
        <dc:title></dc:title>
      </cc:Work>
    </rdf:RDF>
  </metadata>
  <g
     transform="translate(0,-552.36218)"
     id="layer1"
     inkscape:groupmode="layer"
     inkscape:label="Layer 1">
    <text
       sodipodi:linespacing="50%"
       id="text3001"
       y="453.34171"
       x="270.72089"
       style="font-size:40px;font-style:normal;font-variant:normal;font-weight:normal;font-stretch:normal;text-align:start;line-height:50%;letter-spacing:0px;word-spacing:0px;writing-mode:lr-tb;text-anchor:start;fill:#000000;fill-opacity:1;stroke:none;font-family:Ubuntu Condensed;-inkscape-font-specification:'Ubuntu Condensed,'"
       xml:space="preserve"><tspan
         y="453.34171"
         x="270.72089"
         id="tspan3003"
         sodipodi:role="line" /></text>
    <g
       id="g4172"
       style="fill-rule:nonzero;fill:#ffffff;fill-opacity:1">
      <g
         transform="matrix(-0.99028891,0,0,1.0098063,-7.6215532,-5)"
         style="font-style:normal;font-variant:normal;font-weight:normal;font-stretch:normal;font-size:325.91049194px;line-height:50%;font-family:'Ubuntu Condensed';-inkscape-font-specification:'Ubuntu Condensed,';text-align:start;letter-spacing:0px;word-spacing:0px;writing-mode:lr-tb;text-anchor:start;fill:#ffffff;fill-opacity:1;stroke:none;fill-rule:nonzero"
         id="text3815" />
      <g
         transform="translate(-7.6215532,-5)"
         style="font-style:normal;font-variant:normal;font-weight:normal;font-stretch:normal;font-size:321.24243164px;line-height:50%;font-family:'Ubuntu Condensed';-inkscape-font-specification:'Ubuntu Condensed,';text-align:start;letter-spacing:0px;word-spacing:0px;writing-mode:lr-tb;text-anchor:start;fill:#ffffff;fill-opacity:1;stroke:none;fill-rule:nonzero"
         id="text3819" />
      <g
         transform="matrix(1.015908,0,0,0.98434108,-7.6215532,-5)"
         style="font-style:normal;font-variant:normal;font-weight:normal;font-stretch:normal;font-size:316.21212769px;line-height:50%;font-family:'Ubuntu Condensed';-inkscape-font-specification:'Ubuntu Condensed,';text-align:start;letter-spacing:0px;word-spacing:0px;writing-mode:lr-tb;text-anchor:start;fill:#ffffff;fill-opacity:1;stroke:none;fill-rule:nonzero"
         id="text3827" />
      <g
         transform="matrix(1.0020359,0,0,0.99796826,-7.6215532,-5)"
         style="font-style:normal;font-variant:normal;font-weight:normal;font-stretch:normal;font-size:320.5897522px;line-height:50%;font-family:'Ubuntu Condensed';-inkscape-font-specification:'Ubuntu Condensed,';text-align:start;letter-spacing:0px;word-spacing:0px;writing-mode:lr-tb;text-anchor:start;fill:#ffffff;fill-opacity:1;stroke:none;fill-rule:nonzero"
         id="text3831" />
      <g
         id="text3827-3"
         style="font-style:normal;font-variant:normal;font-weight:normal;font-stretch:normal;font-size:316.21212769px;line-height:50%;font-family:'Ubuntu Condensed';-inkscape-font-specification:'Ubuntu Condensed,';text-align:start;letter-spacing:0px;word-spacing:0px;writing-mode:lr-tb;text-anchor:start;fill:#ffffff;fill-opacity:1;stroke:none;fill-rule:nonzero"
         transform="scale(-1.015908,0.9843411)" />
      <g
         id="text3831-7"
         style="font-style:normal;font-variant:normal;font-weight:normal;font-stretch:normal;font-size:320.5897522px;line-height:50%;font-family:'Ubuntu Condensed';-inkscape-font-specification:'Ubuntu Condensed,';text-align:start;letter-spacing:0px;word-spacing:0px;writing-mode:lr-tb;text-anchor:start;fill:#ffffff;fill-opacity:1;stroke:none;fill-rule:nonzero"
         transform="scale(-1.0020359,-0.99796824)">
        <path
           id="path4200"
           style="fill-rule:nonzero;fill:#ffffff;fill-opacity:1"
           d="m -323.25653,-802.4653 c -6.83925,-2.99217 -14.53341,-4.48826 -23.08247,-4.48826 -7.90788,0 -15.28144,1.38922 -22.12069,4.16767 l 0,143.62421 -27.57072,0 0,-160.93606 c 6.19807,-2.99217 13.25105,-5.45002 21.15893,-7.37356 8.12161,-2.13727 16.99126,-3.2059 26.60895,-3.2059 5.12943,0 10.25887,0.32059 15.3883,0.96177 5.12944,0.64118 9.93829,1.81668 14.42654,3.52649 z m 43.59639,49.78773 c 0.21373,-7.90132 0.96177,-15.17885 2.24413,-21.8326 1.28235,-6.44582 3.31275,-12.16388 6.0912,-17.15419 2.99217,-4.78238 6.83925,-8.52511 11.54124,-11.22819 4.91571,-2.70309 11.11377,-4.05463 18.5942,-4.05463 6.19807,0 11.86182,0.83172 16.99125,2.49516 5.34317,1.87136 9.19025,3.43083 11.54124,4.67841 l 5.12943,-21.52071 c -2.77844,-1.87137 -7.48042,-3.8467 -14.10595,-5.92599 -6.41179,-2.28722 -14.10595,-3.43083 -23.08246,-3.43083 -11.75495,0 -21.69323,2.07929 -29.81484,6.23788 -7.90789,4.15859 -14.42655,9.98061 -19.55598,17.46608 -4.91571,7.48546 -8.44219,16.42643 -10.57946,26.82291 -2.13727,10.39648 -3.2059,21.83261 -3.2059,34.30838 0,30.14977 5.12944,52.1903 15.38831,66.12158 10.25887,13.93128 23.83051,20.89692 40.7149,20.89692 19.02165,0 32.48642,-6.96564 40.39431,-20.89692 7.90788,-13.93128 11.86182,-33.47665 11.86182,-58.63612 l 0,-7.17357 c 0,-2.28723 -0.10686,-4.67842 -0.32059,-7.17357 z m 27.89131,71.11189 c -9.19024,0 -15.92262,-4.47048 -20.19715,-13.41145 -4.06081,-8.94097 -6.51866,-20.89691 -7.37357,-35.86784 l 50.97377,0 c 0,15.17885 -1.60295,27.1348 -4.80885,35.86784 -3.2059,8.94097 -9.40397,13.41145 -18.5942,13.41145 z m 63.14348,-90.42585 c 0,-7.6714 5.99728,-13.89031 13.39532,-13.89034 7.39808,-2e-5 13.39541,6.2189 13.39541,13.89034 -1e-5,7.67143 -5.99734,13.89035 -13.39541,13.89033 -7.39804,-3e-5 -13.39531,-6.21894 -13.39532,-13.89033 z m 27.10383,-230.50737 -27.55068,0 0,171.82766 27.51943,0 z m -286.82741,395.4041 0,-11.9344 c 0,-124.94882 0.18907,-243.25348 0.18907,-371.25234 l 0,-11.93246 129.7111,0.023 0,160.93604 c -6.19807,2.99217 -13.25104,5.45003 -21.15892,7.37356 -8.12161,2.13727 -16.99126,3.2059 -26.60895,3.2059 -5.12944,0 -10.25888,-0.32059 -15.38831,-0.96177 -5.12943,-0.64118 -9.93828,-1.81668 -14.42654,-3.52649 l 4.80885,-23.72364 c 6.83925,2.99217 14.5334,4.48826 23.08246,4.48826 7.90788,0 15.28144,-1.38922 22.12069,-4.16767 l -6.7e-4,-119.78004 -78.37559,0 c -0.011,119.22352 -0.16627,230.87434 -0.17737,347.3855 l 316.56887,0 0.15555,-140.7421 0.38461,-12.02558 0,-47.02186 -42.31785,0 0,-23.82033 42.31785,0 0,-93.02807 c 0,-11.58827 -2.0304,-19.74299 -6.09121,-24.46414 -4.27453,-4.50655 -9.93829,-6.75982 -16.99126,-6.75982 -3.63335,0 -7.05297,0.53649 -10.25887,1.60948 -3.41962,1.07299 -6.30493,2.36058 -8.65592,3.86275 l -5.45002,-22.21084 c 8.76279,-5.15034 18.05989,-7.72544 27.8913,-7.72544 15.81576,0 27.677581,4.39922 35.585464,13.19767 7.694153,9.0131 11.54123,23.82034 11.54123,44.42171 l 0,117.7179 c 5.194685,-2.51718 12.677963,-3.09689 19.39188,-2.78341 9.866759,0.46069 19.218025,2.63821 28.021813,7.91463 l -5.475527,22.75458 c -2.361991,-1.53895 -5.260799,-2.85806 -8.696424,-3.95731 -3.220898,-1.09926 -6.656523,-1.64889 -10.306874,-1.64889 -7.085975,0 -12.776229,2.30843 -17.07076,6.9253 -4.079804,4.83672 -6.119706,13.19106 -6.119706,25.06302 l 0,95.3054 42.515854,0 0,24.40347 -42.515854,0 0,51.44513 -27.695876,-4.56879 z m 220.52064,-317.35586 c -0.21373,-7.90132 -0.96177,-15.17885 -2.24412,-21.8326 -1.28237,-6.44581 -3.31277,-12.16386 -6.09121,-17.15417 -2.99217,-4.78238 -6.83924,-8.52511 -11.54123,-11.2282 -4.91571,-2.70309 -11.11378,-4.05463 -18.5942,-4.05463 -6.19807,0 -11.86183,0.83172 -16.99127,2.49516 -5.34316,1.87137 -9.19023,3.43084 -11.54122,4.67841 l -5.12944,-21.5207 c 2.77845,-1.87136 7.48043,-3.84668 14.10595,-5.92596 6.41179,-2.28725 14.10595,-3.43095 23.08246,-3.43095 11.75496,0 21.69324,2.0793 29.81485,6.23799 7.90788,4.15856 14.42654,9.98058 19.55597,17.46605 4.91571,7.48547 8.4422,16.42644 10.57946,26.82291 2.13727,10.39647 3.2059,21.8326 3.2059,34.30837 0,30.14978 -5.12943,52.19031 -15.3883,66.12159 -10.25888,13.93127 -23.83051,20.89691 -40.7149,20.89691 -19.02166,0 -32.48643,-6.96564 -40.39431,-20.89691 -7.90788,-13.93128 -11.86182,-33.47666 -11.86182,-58.63613 l 0,-7.17357 c 0,-2.28722 0.10686,-4.67841 0.32058,-7.17357 z m -27.8913,71.11191 c 9.19024,0 15.92262,-4.47049 20.19715,-13.41147 4.0608,-8.94097 6.51865,-20.89691 7.37356,-35.86783 l -50.97377,0 c 0,15.17885 1.60295,27.1348 4.80885,35.86783 3.20589,8.94098 9.40396,13.41147 18.59421,13.41147 z"
           inkscape:connector-curvature="0"
           sodipodi:nodetypes="cscccccssccccccsccccsccsssssssccsccccssssssccccccssccccssccscccccccccccscscccscscscccscscccccccccccsccccsccsssssssccsccccs" />
      </g>
    </g>
  </g>
</svg>
